<svg id="Layer_2" data-name="Layer 2" xmlns="http://www.w3.org/2000/svg" xmlns:xlink="http://www.w3.org/1999/xlink" viewBox="0 0 1819.9 494.65"><defs><style>.cls-1{fill:url(#linear-gradient);}.cls-2{fill:#ff7417;}</style><linearGradient id="linear-gradient" x1="90.32" y1="523.53" x2="421.67" y2="192.19" gradientUnits="userSpaceOnUse"><stop offset="0" stop-color="#f7931e"/><stop offset="0.61" stop-color="#fd7d19"/><stop offset="1" stop-color="#ff7417"/></linearGradient></defs><path class="cls-1" d="M443.22,460.91l-.71-206.19a24.73,24.73,0,0,0-24.85-42.65L280.24,133.54a24.73,24.73,0,0,0-49.34,0L93.48,212.07a24.73,24.73,0,0,0-24.71,42.74L69.48,461a24.73,24.73,0,0,0,24.8,42.68L230.9,582.13a24.73,24.73,0,0,0,49,3l138.9-81.37a24.74,24.74,0,0,0,24.47-42.87ZM285.29,362a30,30,0,0,0,.35-4.58,31.18,31.18,0,0,0-.34-4.56l129.75-92.14.66,194.08Zm-15.91-31.55-.44-.22.33-171.33L403.2,235.45ZM241.78,159l-.32,171.22-.49.25-133.08-95ZM225,352.81a30.67,30.67,0,0,0-.35,4.63,31.48,31.48,0,0,0,.38,4.79L96.94,454.72,96.28,261Zm16.12,31.7.34.17.32,172L108.59,480.21Zm28.15,175-.33-174.87.42-.22,134.91,96Z" transform="translate(-57.71 -110.54)"/><path class="cls-2" d="M520.85,441.27l49.81-163.51h47.59l49.81,163.51H628.61l-8.37-29.75h-52l-8.15,29.75Zm56.2-63.91h34.37l-17.18-67Z" transform="translate(-57.71 -110.54)"/><path class="cls-2" d="M685.9,441.27V322.71h31.52L724,334.39a90.1,90.1,0,0,1,15.86-9.58q8.6-4.08,22-4.08,11,0,18.29,4.63a31,31,0,0,1,11,11.68q4.85-3.53,11.13-7.39A68.75,68.75,0,0,1,816,323.26a45.12,45.12,0,0,1,14.65-2.53q14.76,0,22.92,5.4a28.64,28.64,0,0,1,11.46,15.42q3.3,10,3.3,23.91v75.81H830.24V369a16.39,16.39,0,0,0-1.76-8.15,10.64,10.64,0,0,0-4.85-4.52,17.62,17.62,0,0,0-7.49-1.43,28.27,28.27,0,0,0-11,2.31,37.08,37.08,0,0,0-9.48,5.62c.15,1.18.26,2.35.33,3.52s.12,2.28.12,3.31v71.62H758V369a16.39,16.39,0,0,0-1.76-8.15,10.64,10.64,0,0,0-4.85-4.52,17.05,17.05,0,0,0-7.27-1.43,29.14,29.14,0,0,0-7.49,1,28.29,28.29,0,0,0-6.83,2.75,39.66,39.66,0,0,0-5.73,4v78.67Z" transform="translate(-57.71 -110.54)"/><path class="cls-2" d="M964.88,442.59a47.87,47.87,0,0,1-13.22-1.65,43.86,43.86,0,0,1-10.36-4.41,80,80,0,0,1-9-6.28l-6.17,11h-32V273.13h38.13V330a123.36,123.36,0,0,1,14.65-6.28,47.72,47.72,0,0,1,16.2-3q15.42,0,24.57,6.5t13.22,20.27q4.07,13.78,4.07,35.81,0,20.49-4.4,33.61t-13.22,19.39Q978.54,442.6,964.88,442.59Zm-14.54-30.85a14.7,14.7,0,0,0,8.15-2.43q3.75-2.42,6.06-8.92t2.31-19.06q0-13.89-2.42-20.16t-6.28-8.05a18.72,18.72,0,0,0-7.82-1.76,30.47,30.47,0,0,0-10.25,1.76,41.88,41.88,0,0,0-7.82,3.53v50.68a54.74,54.74,0,0,0,7.49,3A34.53,34.53,0,0,0,950.34,411.74Z" transform="translate(-57.71 -110.54)"/><path class="cls-2" d="M1079.69,442.37q-19.83,0-32-5.18t-17.51-18.29q-5.42-13.11-5.4-36.69,0-24.24,5-37.57T1046.41,326q11.68-5.29,31.74-5.29,18.28,0,29.08,3.53t15.54,12.56q4.74,9,4.74,25.56,0,12.35-4.85,19.61a25.83,25.83,0,0,1-13.77,10.25,66.86,66.86,0,0,1-21.05,3H1062.5a32.26,32.26,0,0,0,2.75,11.24c1.4,2.79,4,4.78,7.83,5.95s9.47,1.76,17,1.76h33.28v22.26q-8.16,2-18.62,4A136.61,136.61,0,0,1,1079.69,442.37Zm-17.63-69.64h21.59q5.5,0,7.94-2.2t2.42-7.93a19.86,19.86,0,0,0-1.54-8.49,9.27,9.27,0,0,0-5.07-4.62,24.86,24.86,0,0,0-9.25-1.44,17.93,17.93,0,0,0-9.26,2.1q-3.53,2.1-5.18,7.49T1062.06,372.73Z" transform="translate(-57.71 -110.54)"/><path class="cls-2" d="M1150.64,441.27V322.71h29.53l8.59,17.19A65.06,65.06,0,0,1,1202,326.57a28.86,28.86,0,0,1,17.85-5.62c1.32,0,2.82.08,4.51.22a23.86,23.86,0,0,1,4.74.88v39c-2.35-.3-4.78-.52-7.27-.67s-4.85-.22-7-.22a42.14,42.14,0,0,0-10.47,1.22,32,32,0,0,0-8.59,3.52,27,27,0,0,0-7,6.06v70.3Z" transform="translate(-57.71 -110.54)"/><path class="cls-2" d="M1339.05,441.27l-38.34-163.51h39.44l23.14,106.87,27.32-106.87H1425l27.1,106.87,23.14-106.87h39.45l-38.35,163.51H1438l-30.19-107.1-30.41,107.1Z" transform="translate(-57.71 -110.54)"/><path class="cls-2" d="M1551.7,442.59q-13.67,0-22-8t-8.37-21.93V401.16a28.91,28.91,0,0,1,9.58-22.25q9.59-8.82,30.08-8.82h26.89v-5.73a15.81,15.81,0,0,0-1.77-7.93q-1.75-3.09-6.83-4.41t-15.64-1.32h-34.82V328.88a118.05,118.05,0,0,1,20.6-5.4,180.84,180.84,0,0,1,28.54-2.31q14.76,0,25.56,3.53a30.81,30.81,0,0,1,16.64,12.23q5.84,8.7,5.84,24.79v79.55h-30.19l-6-12.12a53.39,53.39,0,0,1-5.4,4.07,54.2,54.2,0,0,1-8.37,4.52,56.58,56.58,0,0,1-11.13,3.53A63.17,63.17,0,0,1,1551.7,442.59Zm19.61-26.22a10.9,10.9,0,0,0,3.64-.22c1.39-.3,2.75-.63,4.07-1s2.61-.73,3.86-1.1A23,23,0,0,0,1586,413c.81-.36,1.44-.62,1.88-.77V387.94l-14.11,1.32q-7.26.89-10.9,3.86t-3.64,8.48v4.63a10.72,10.72,0,0,0,1.54,6.06,7.86,7.86,0,0,0,4.3,3.19A20.48,20.48,0,0,0,1571.31,416.37Z" transform="translate(-57.71 -110.54)"/><path class="cls-2" d="M1681.05,441.27l-38.13-118.56h39.23l21.59,83.3,22.26-83.3h39l-40.1,118.56Z" transform="translate(-57.71 -110.54)"/><path class="cls-2" d="M1829.79,442.37q-19.83,0-32-5.18t-17.52-18.29q-5.4-13.11-5.4-36.69,0-24.24,5-37.57T1796.52,326q11.67-5.29,31.73-5.29,18.29,0,29.09,3.53t15.53,12.56q4.74,9,4.74,25.56,0,12.35-4.85,19.61A25.79,25.79,0,0,1,1859,392.24a66.86,66.86,0,0,1-21,3H1812.6a32,32,0,0,0,2.76,11.24q2.09,4.19,7.82,5.95t17,1.76h33.27v22.26q-8.14,2-18.62,4A136.54,136.54,0,0,1,1829.79,442.37Zm-17.63-69.64h21.6q5.51,0,7.93-2.2t2.42-7.93a19.71,19.71,0,0,0-1.54-8.49,9.27,9.27,0,0,0-5.07-4.62,24.82,24.82,0,0,0-9.25-1.44,18,18,0,0,0-9.26,2.1q-3.52,2.1-5.18,7.49T1812.16,372.73Z" transform="translate(-57.71 -110.54)"/></svg>