<svg id="Layer_1" data-name="Layer 1" xmlns="http://www.w3.org/2000/svg" xmlns:xlink="http://www.w3.org/1999/xlink" viewBox="0 0 312.6 390"><defs><style>.cls-1{fill:url(#linear-gradient);}</style><linearGradient id="linear-gradient" x1="25.7" y1="1016.46" x2="286.9" y2="755.26" gradientTransform="translate(0 -690.86)" gradientUnits="userSpaceOnUse"><stop offset="0" stop-color="#f7931e"/><stop offset="0.61" stop-color="#fd7d19"/><stop offset="1" stop-color="#ff7417"/></linearGradient></defs><g id="Layer_2" data-name="Layer 2"><path class="cls-1" d="M303.9,276.2l-.6-162.5A19.52,19.52,0,0,0,292.4,78a18.34,18.34,0,0,0-8.7,2.1l-108.3-62a19.5,19.5,0,0,0-38.9,0L28.2,80A19.55,19.55,0,0,0,8.7,113.8l.6,162.5A19.54,19.54,0,0,0,28.9,310l107.6,61.8a19.5,19.5,0,0,0,38.6,2.4L284.6,310a19,19,0,0,0,8.5,2,19.54,19.54,0,0,0,10.8-35.8Zm-124.5-78a21.75,21.75,0,0,0,0-7.2l102.3-72.6.5,153Zm-12.5-24.8c-.1-.1-.2-.1-.4-.2l.3-135.1L272.4,98.4ZM145.1,38.2l-.3,135c-.1.1-.3.1-.4.2L39.6,98.5ZM131.9,191a21.86,21.86,0,0,0-.3,3.6,24.33,24.33,0,0,0,.3,3.8l-101,72.9-.5-152.8Zm12.7,25c.1,0,.2.1.3.1l.3,135.6-105-60.3Zm22.2,137.9-.3-137.8c.1-.1.2-.1.3-.2l106.4,75.7Z"/></g></svg>