<svg id="Layer_1" data-name="Layer 1" xmlns="http://www.w3.org/2000/svg" viewBox="0 0 1356.7 169.5"><defs><style>.cls-1{fill:#fff;}</style></defs><g id="Layer_2" data-name="Layer 2"><path class="cls-1" d="M0,168.1,49.8,4.6H97.4l49.7,163.5H107.6l-8.4-29.8h-52L39,168.1Zm56.1-63.9H90.5l-17.2-67Z"/><path class="cls-1" d="M165,168.1V49.6h31.5l6.6,11.7A84,84,0,0,1,219,51.7c5.8-2.7,13.1-4.1,22-4.1,7.3,0,13.4,1.5,18.3,4.6a30.74,30.74,0,0,1,11,11.7c3.2-2.4,6.9-4.8,11.1-7.4a66.24,66.24,0,0,1,13.7-6.4,45,45,0,0,1,14.7-2.5c9.8,0,17.5,1.8,22.9,5.4a28.68,28.68,0,0,1,11.5,15.4c2.2,6.7,3.3,14.6,3.3,23.9v75.8H309.4V95.8a15.68,15.68,0,0,0-1.8-8.1,10.4,10.4,0,0,0-4.8-4.5,17.33,17.33,0,0,0-7.5-1.4,28.93,28.93,0,0,0-11,2.3,36.66,36.66,0,0,0-9.5,5.6c.1,1.2.3,2.4.3,3.5s.1,2.3.1,3.3v71.6H237.1V95.8a15.68,15.68,0,0,0-1.8-8.1,10.4,10.4,0,0,0-4.8-4.5,16.7,16.7,0,0,0-7.3-1.4,29,29,0,0,0-14.3,3.8,34.08,34.08,0,0,0-5.7,4v78.7l-38.2-.2Z"/><path class="cls-1" d="M444,169.5a47.73,47.73,0,0,1-13.2-1.6,46.48,46.48,0,0,1-10.4-4.4,66.46,66.46,0,0,1-9-6.3l-6.2,11h-32V0h38.1V56.9A129.69,129.69,0,0,1,426,50.6a47.21,47.21,0,0,1,16.2-3c10.3,0,18.5,2.2,24.6,6.5S477.3,65.2,480,74.4s4.1,21.1,4.1,35.8c0,13.7-1.5,24.9-4.4,33.6s-7.3,15.2-13.2,19.4S453.1,169.5,444,169.5Zm-14.6-30.9a15.07,15.07,0,0,0,8.2-2.4c2.5-1.6,4.5-4.6,6.1-8.9s2.3-10.7,2.3-19.1c0-9.3-.8-16-2.4-20.2s-3.7-6.9-6.3-8a20.12,20.12,0,0,0-7.8-1.8A30.61,30.61,0,0,0,419.2,80a50,50,0,0,0-7.8,3.5v50.7a64.74,64.74,0,0,0,7.5,3A35.59,35.59,0,0,0,429.4,138.6Z"/><path class="cls-1" d="M558.8,169.2c-13.2,0-23.9-1.7-31.9-5.2s-13.9-9.5-17.5-18.3-5.4-21-5.4-36.7c0-16.2,1.7-28.7,5-37.6s8.8-15.1,16.6-18.6,18.4-5.3,31.7-5.3c12.2,0,21.9,1.2,29.1,3.5s12.4,6.5,15.5,12.6,4.7,14.5,4.7,25.6c0,8.2-1.6,14.8-4.8,19.6A25.94,25.94,0,0,1,588,119.1a66,66,0,0,1-21,3H541.7a30.44,30.44,0,0,0,2.8,11.2q2.1,4.2,7.8,6c3.8,1.2,9.5,1.8,17,1.8h33.3v22.2c-5.4,1.3-11.7,2.6-18.6,4A143,143,0,0,1,558.8,169.2ZM541.2,99.6h21.6c3.7,0,6.3-.7,7.9-2.2s2.4-4.1,2.4-7.9a20.23,20.23,0,0,0-1.5-8.5,8.94,8.94,0,0,0-5.1-4.6c-2.3-1-5.4-1.4-9.3-1.4a18.29,18.29,0,0,0-9.3,2.1c-2.3,1.4-4.1,3.9-5.2,7.5S541.2,93.1,541.2,99.6Z"/><path class="cls-1" d="M629.7,168.1V49.6h29.5l8.6,17.2A64,64,0,0,1,681,53.5c5-3.8,10.9-5.6,17.8-5.6,1.3,0,2.8.1,4.5.2a17.05,17.05,0,0,1,4.7.9V88c-2.3-.3-4.8-.5-7.3-.7s-4.8-.2-7.1-.2a43.25,43.25,0,0,0-10.5,1.2,33,33,0,0,0-8.6,3.5,24.87,24.87,0,0,0-6.9,6.1v70.3l-37.9-.1Z"/><path class="cls-1" d="M818.2,168.1,779.9,4.6h39.4l23.1,106.9L869.7,4.6h34.4l27.1,106.9L954.3,4.6h39.4L955.4,168.1H917.1L886.9,61,856.5,168.1Z"/><path class="cls-1" d="M1030.8,169.5c-9.1,0-16.4-2.7-22-8s-8.4-12.7-8.4-21.9V128.1a29,29,0,0,1,9.6-22.3c6.4-5.9,16.4-8.8,30.1-8.8H1067V91.3a15.4,15.4,0,0,0-1.8-7.9c-1.2-2.1-3.4-3.5-6.8-4.4s-8.6-1.3-15.6-1.3H1008V55.9a117.82,117.82,0,0,1,20.6-5.4,174.6,174.6,0,0,1,28.5-2.3,84.71,84.71,0,0,1,25.6,3.5,31,31,0,0,1,16.6,12.2c3.9,5.8,5.8,14.1,5.8,24.8v79.6h-30.2l-5.9-12.1a52.9,52.9,0,0,1-5.4,4.1,63.88,63.88,0,0,1-8.4,4.5,55.63,55.63,0,0,1-11.1,3.5A80.19,80.19,0,0,1,1030.8,169.5Zm19.6-26.3a11.47,11.47,0,0,0,3.6-.2c1.4-.3,2.8-.6,4.1-1s2.6-.7,3.9-1.1a21.35,21.35,0,0,0,3.1-1.1,20.53,20.53,0,0,1,1.9-.8V114.8l-14.1,1.3c-4.8.6-8.5,1.9-10.9,3.9s-3.6,4.8-3.6,8.5v4.6a11.25,11.25,0,0,0,1.5,6.1,7.72,7.72,0,0,0,4.3,3.2A23.31,23.31,0,0,0,1050.4,143.2Z"/><path class="cls-1" d="M1160.2,168.1,1122.1,49.5h39.2l21.6,83.3,22.3-83.3h39L1204.1,168l-43.9.1Z"/><path class="cls-1" d="M1308.9,169.2c-13.2,0-23.9-1.7-31.9-5.2s-13.9-9.5-17.5-18.3-5.4-21-5.4-36.7c0-16.2,1.7-28.7,5-37.6s8.8-15.1,16.6-18.6,18.4-5.3,31.7-5.3c12.2,0,21.9,1.2,29.1,3.5s12.4,6.5,15.5,12.6,4.7,14.5,4.7,25.6c0,8.2-1.6,14.8-4.8,19.6a25.94,25.94,0,0,1-13.8,10.3,66,66,0,0,1-21,3h-25.3a30.44,30.44,0,0,0,2.8,11.2q2.1,4.2,7.8,6c3.8,1.2,9.5,1.8,17,1.8h33.3v22.2c-5.4,1.3-11.7,2.6-18.6,4A143,143,0,0,1,1308.9,169.2Zm-17.6-69.6h21.6c3.7,0,6.3-.7,7.9-2.2s2.4-4.1,2.4-7.9a20.23,20.23,0,0,0-1.5-8.5,8.94,8.94,0,0,0-5.1-4.6c-2.3-1-5.4-1.4-9.3-1.4a18.29,18.29,0,0,0-9.3,2.1c-2.3,1.4-4.1,3.9-5.2,7.5S1291.3,93.1,1291.3,99.6Z"/></g></svg>