<?xml version="1.0" encoding="utf-8"?>
<!-- Generator: Adobe Illustrator 24.1.1, SVG Export Plug-In . SVG Version: 6.00 Build 0)  -->
<svg version="1.1" id="Layer_1" xmlns="http://www.w3.org/2000/svg" xmlns:xlink="http://www.w3.org/1999/xlink" x="0px" y="0px"
	 viewBox="0 0 1758 389.9" style="enable-background:new 0 0 1758 389.9;" xml:space="preserve">
<style type="text/css">
	.st0{display:none;}
	.st1{display:inline;}
	.st2{font-family:'Exo-Bold';}
	.st3{font-size:208.6822px;}
	.st4{letter-spacing:3;}
	.st5{display:inline;fill:#202C39;}
	.st6{display:inline;fill:#F9F9F9;}
	.st7{fill:url(#SVGID_1_);}
	.st8{fill:#202C39;}
</style>
<g id="Layer_1_1_" class="st0">
	<text transform="matrix(1 0 0 1 477.5913 267.2364)" class="st1 st2 st3 st4">Amber Wave</text>
	<g class="st1">
		<g>
			<path d="M-7.9,54.9l156.2-89.2c-5.2-4.4-8.9-10.5-10-17.5L-17.9,37.4C-12.7,41.8-9,47.9-7.9,54.9z"/>
			<path d="M370.5,88.8c-3.5,0-6.9-0.6-10-1.8l0.8,236.2c3.2-1.2,6.6-1.8,10.2-1.8c3.5,0,6.9,0.6,10,1.8l-0.8-236.2
				C377.5,88.1,374.1,88.8,370.5,88.8z"/>
			<path d="M185.6-34.3l156.2,89.2c1.1-7,4.8-13.2,10-17.5L195.6-51.9C194.5-44.9,190.8-38.7,185.6-34.3z"/>
			<path d="M-35.6,321.3c3.5,0,6.9,0.6,10,1.8l-0.8-236.2c-3.2,1.2-6.6,1.8-10.2,1.8c-3.5,0-6.9-0.6-10-1.8l0.8,236.2
				C-42.6,322-39.2,321.3-35.6,321.3z"/>
			<path d="M148.3,444.4L-6.9,355.2c-1.2,7-4.8,13.2-10.1,17.5l155.2,89.1C139.5,454.9,143.1,448.7,148.3,444.4z"/>
			<path d="M342.9,355.5l-155.1,90.9c4.8,4.8,7.8,11.3,8.3,18.6l157.1-92C347.8,368.6,344.1,362.5,342.9,355.5z"/>
		</g>
		<path d="M370.5,328.6c-3.3,0-6.5,0.8-9.3,2.1L195.1,212.5c0.6-2.4,1-4.9,1-7.5c0-2.9-0.4-5.6-1.2-8.3L360.6,79.1
			c3,1.5,6.3,2.4,9.9,2.4c12,0,21.8-9.8,21.8-21.8c0-12-9.8-21.8-21.8-21.8s-21.8,9.8-21.8,21.8c0,1,0.1,2,0.2,3l-166.1,118
			c-1.9-1.2-4-2.2-6.1-3L177-37.3c7-3.6,11.8-10.9,11.8-19.3c0-12-9.8-21.8-21.8-21.8s-21.8,9.8-21.8,21.8c0,8.4,4.7,15.7,11.7,19.3
			l-0.4,215.3c-2,0.8-3.9,1.8-5.7,3L-15,62.7c0.1-1,0.2-2,0.2-3c0-12-9.8-21.8-21.8-21.8s-21.8,9.8-21.8,21.8
			c0,12,9.8,21.8,21.8,21.8c3.6,0,6.9-0.9,9.9-2.4l165.6,118.2c-0.7,2.5-1.1,5.1-1.1,7.7c0,2.4,0.3,4.8,0.9,7.1l-165,119.1
			c-3.1-1.7-6.6-2.6-10.3-2.6c-12,0-21.8,9.8-21.8,21.8c0,12,9.8,21.8,21.8,21.8s21.8-9.8,21.8-21.8c0-0.8-0.1-1.7-0.1-2.5
			l165-119.2c1.9,1.4,4,2.5,6.3,3.4l0.4,215.3c-6.9,3.7-11.7,10.9-11.7,19.3c0,12,9.8,21.8,21.8,21.8s21.8-9.8,21.8-21.8
			c0-8.4-4.8-15.7-11.8-19.3l-0.4-214.9c2.4-0.9,4.7-2,6.8-3.5L349,346.8c-0.2,1.2-0.3,2.4-0.3,3.6c0,12,9.8,21.8,21.8,21.8
			s21.8-9.8,21.8-21.8C392.3,338.4,382.5,328.6,370.5,328.6z"/>
	</g>
</g>
<g id="Layer_3" class="st0">
	<rect x="-112" y="-165.4" class="st5" width="1920" height="720"/>
</g>
<g id="Layer_3_copy" class="st0">
	<rect x="-112" y="-165.4" class="st6" width="1920" height="720"/>
</g>
<g id="Layer_2_1_">
	<g>
		
			<linearGradient id="SVGID_1_" gradientUnits="userSpaceOnUse" x1="32.2162" y1="63.5762" x2="293.4138" y2="324.7737" gradientTransform="matrix(1 0 0 -1 0 389.14)">
			<stop  offset="0" style="stop-color:#F7931E"/>
			<stop  offset="0.6079" style="stop-color:#FD7D19"/>
			<stop  offset="1" style="stop-color:#FF7417"/>
		</linearGradient>
		<path class="st7" d="M310.4,276.2l-0.6-162.5c5.2-3.5,8.6-9.4,8.6-16.2c0-10.8-8.7-19.5-19.5-19.5c-3.1,0-6.1,0.7-8.7,2.1
			L181.9,18.1C181.2,8,172.8,0,162.5,0S143.7,8,143,18.1L34.7,80C32.1,78.7,29.1,78,26,78C15.2,78,6.5,86.7,6.5,97.5
			c0,6.8,3.5,12.8,8.7,16.3l0.6,162.5c-5.2,3.5-8.6,9.4-8.6,16.2c0,10.8,8.7,19.5,19.5,19.5c3.1,0,6.1-0.7,8.7-2L143,371.8
			c0.7,10.2,9.1,18.2,19.5,18.2c9.5,0,17.4-6.8,19.1-15.8L291.1,310c2.6,1.3,5.5,2,8.5,2c10.8,0,19.5-8.7,19.5-19.5
			C319.1,285.7,315.7,279.7,310.4,276.2z M185.9,198.2c0.2-1.2,0.3-2.4,0.3-3.6c0-1.2-0.1-2.4-0.3-3.6l102.3-72.6l0.5,153
			L185.9,198.2z M173.4,173.4c-0.1-0.1-0.2-0.1-0.4-0.2l0.3-135.1l105.6,60.3L173.4,173.4z M151.6,38.2l-0.3,135
			c-0.1,0.1-0.3,0.1-0.4,0.2L46.1,98.5L151.6,38.2z M138.4,191c-0.2,1.2-0.3,2.4-0.3,3.6c0,1.3,0.1,2.5,0.3,3.8l-101,72.9
			l-0.5-152.8L138.4,191z M151.1,216c0.1,0,0.2,0.1,0.3,0.1l0.3,135.6l-105-60.3L151.1,216z M173.3,353.9L173,216.1
			c0.1-0.1,0.2-0.1,0.3-0.2l106.4,75.7L173.3,353.9z"/>
		<g>
			<path class="st8" d="M392.9,275.8l49.8-163.5h47.6L540,275.8h-39.5l-8.4-29.8h-52l-8.2,29.8L392.9,275.8L392.9,275.8z M449,211.9
				h34.4l-17.2-67L449,211.9z"/>
			<path class="st8" d="M557.9,275.8V157.3h31.5L596,169c4.8-3.7,10.1-6.9,15.9-9.6s13.1-4.1,22-4.1c7.3,0,13.4,1.5,18.3,4.6
				s8.5,7,11,11.7c3.2-2.4,6.9-4.8,11.1-7.4s8.7-4.7,13.7-6.4s9.8-2.5,14.7-2.5c9.8,0,17.5,1.8,22.9,5.4c5.4,3.6,9.3,8.7,11.5,15.4
				c2.2,6.7,3.3,14.6,3.3,23.9v75.8h-38.1v-72.3c0-3.4-0.6-6.1-1.8-8.1c-1.2-2.1-2.8-3.6-4.8-4.5c-2.1-1-4.6-1.4-7.5-1.4
				c-3.7,0-7.3,0.8-11,2.3c-3.7,1.5-6.8,3.4-9.5,5.6c0.1,1.2,0.3,2.4,0.3,3.5c0.1,1.2,0.1,2.3,0.1,3.3v71.6H630v-72.3
				c0-3.4-0.6-6.1-1.8-8.1c-1.2-2.1-2.8-3.6-4.8-4.5c-2.1-1-4.5-1.4-7.3-1.4c-2.5,0-5,0.3-7.5,1c-2.5,0.7-4.8,1.6-6.8,2.8
				c-2.1,1.2-4,2.5-5.7,4v78.7L557.9,275.8L557.9,275.8z"/>
			<path class="st8" d="M836.9,277.2c-5,0-9.4-0.5-13.2-1.6c-3.8-1.1-7.3-2.6-10.4-4.4c-3.1-1.8-6.1-3.9-9-6.3l-6.2,11h-32V107.7
				h38.1v56.9c4.3-2.2,9.2-4.3,14.7-6.3s10.9-3,16.2-3c10.3,0,18.5,2.2,24.6,6.5c6.1,4.3,10.5,11.1,13.2,20.3s4.1,21.1,4.1,35.8
				c0,13.7-1.5,24.9-4.4,33.6s-7.3,15.2-13.2,19.4C853.5,275.1,846,277.2,836.9,277.2z M822.3,246.3c2.9,0,5.7-0.8,8.2-2.4
				c2.5-1.6,4.5-4.6,6.1-8.9c1.5-4.3,2.3-10.7,2.3-19.1c0-9.3-0.8-16-2.4-20.2c-1.6-4.2-3.7-6.9-6.3-8s-5.2-1.8-7.8-1.8
				c-3.5,0-6.9,0.6-10.3,1.8c-3.3,1.2-5.9,2.4-7.8,3.5v50.7c2.1,1,4.5,2,7.5,3C814.7,245.8,818.2,246.3,822.3,246.3z"/>
			<path class="st8" d="M951.7,276.9c-13.2,0-23.9-1.7-31.9-5.2c-8.1-3.5-13.9-9.5-17.5-18.3c-3.6-8.7-5.4-21-5.4-36.7
				c0-16.2,1.7-28.7,5-37.6s8.8-15.1,16.6-18.6c7.8-3.5,18.4-5.3,31.7-5.3c12.2,0,21.9,1.2,29.1,3.5s12.4,6.5,15.5,12.6
				c3.2,6,4.7,14.5,4.7,25.6c0,8.2-1.6,14.8-4.8,19.6s-7.8,8.3-13.8,10.3c-5.9,2-13,3-21,3h-25.3c0.4,4.7,1.4,8.5,2.8,11.2
				c1.4,2.8,4,4.8,7.8,6c3.8,1.2,9.5,1.8,17,1.8h33.3V271c-5.4,1.3-11.7,2.6-18.6,4C969.7,276.3,961.4,276.9,951.7,276.9z
				 M934.1,207.3h21.6c3.7,0,6.3-0.7,7.9-2.2s2.4-4.1,2.4-7.9c0-3.5-0.5-6.4-1.5-8.5c-1-2.1-2.7-3.7-5.1-4.6c-2.3-1-5.4-1.4-9.3-1.4
				c-3.8,0-6.9,0.7-9.3,2.1c-2.3,1.4-4.1,3.9-5.2,7.5C934.6,195.8,934.1,200.8,934.1,207.3z"/>
			<path class="st8" d="M1022.6,275.8V157.3h29.5l8.6,17.2c3.8-5.1,8.2-9.6,13.2-13.3c5-3.8,10.9-5.6,17.8-5.6
				c1.3,0,2.8,0.1,4.5,0.2c1.7,0.1,3.3,0.4,4.7,0.9v39c-2.3-0.3-4.8-0.5-7.3-0.7c-2.5-0.1-4.8-0.2-7.1-0.2c-3.8,0-7.3,0.4-10.5,1.2
				c-3.2,0.8-6,2-8.6,3.5c-2.6,1.5-4.9,3.6-6.9,6.1v70.3L1022.6,275.8L1022.6,275.8z"/>
			<path class="st8" d="M1211.1,275.8l-38.3-163.5h39.4l23.1,106.9l27.3-106.9h34.4l27.1,106.9l23.1-106.9h39.4l-38.3,163.5H1310
				l-30.2-107.1l-30.4,107.1L1211.1,275.8L1211.1,275.8z"/>
			<path class="st8" d="M1423.7,277.2c-9.1,0-16.4-2.7-22-8c-5.6-5.4-8.4-12.7-8.4-21.9v-11.5c0-9,3.2-16.4,9.6-22.3
				c6.4-5.9,16.4-8.8,30.1-8.8h26.9v-5.7c0-3.2-0.6-5.9-1.8-7.9c-1.2-2.1-3.4-3.5-6.8-4.4s-8.6-1.3-15.6-1.3h-34.8v-21.8
				c5.9-2.2,12.7-4,20.6-5.4c7.9-1.4,17.4-2.2,28.5-2.3c9.8,0,18.4,1.2,25.6,3.5c7.2,2.4,12.7,6.4,16.6,12.2
				c3.9,5.8,5.8,14.1,5.8,24.8v79.6h-30.2l-5.9-12.1c-1.3,1.2-3.1,2.5-5.4,4.1c-2.3,1.5-5.1,3-8.4,4.5c-3.3,1.5-7,2.6-11.1,3.5
				C1432.8,276.7,1428.4,277.2,1423.7,277.2z M1443.3,250.9c1,0.1,2.2,0.1,3.6-0.2c1.4-0.3,2.8-0.6,4.1-1c1.3-0.4,2.6-0.7,3.9-1.1
				c1.3-0.4,2.3-0.7,3.1-1.1c0.8-0.4,1.4-0.6,1.9-0.8v-24.2l-14.1,1.3c-4.8,0.6-8.5,1.9-10.9,3.9s-3.6,4.8-3.6,8.5v4.6
				c0,2.5,0.5,4.5,1.5,6.1s2.5,2.6,4.3,3.2C1438.9,250.6,1441,250.9,1443.3,250.9z"/>
			<path class="st8" d="M1553.1,275.8l-38.1-118.6h39.2l21.6,83.3l22.3-83.3h39l-40.1,118.5L1553.1,275.8L1553.1,275.8z"/>
			<path class="st8" d="M1701.8,276.9c-13.2,0-23.9-1.7-31.9-5.2c-8.1-3.5-13.9-9.5-17.5-18.3c-3.6-8.7-5.4-21-5.4-36.7
				c0-16.2,1.7-28.7,5-37.6c3.3-8.9,8.8-15.1,16.6-18.6c7.8-3.5,18.4-5.3,31.7-5.3c12.2,0,21.9,1.2,29.1,3.5s12.4,6.5,15.5,12.6
				c3.2,6,4.7,14.5,4.7,25.6c0,8.2-1.6,14.8-4.8,19.6s-7.8,8.3-13.8,10.3c-5.9,2-13,3-21,3h-25.3c0.4,4.7,1.4,8.5,2.8,11.2
				c1.4,2.8,4,4.8,7.8,6c3.8,1.2,9.5,1.8,17,1.8h33.3V271c-5.4,1.3-11.7,2.6-18.6,4C1719.8,276.3,1711.5,276.9,1701.8,276.9z
				 M1684.2,207.3h21.6c3.7,0,6.3-0.7,7.9-2.2s2.4-4.1,2.4-7.9c0-3.5-0.5-6.4-1.5-8.5c-1-2.1-2.7-3.7-5.1-4.6
				c-2.3-1-5.4-1.4-9.3-1.4c-3.8,0-6.9,0.7-9.3,2.1c-2.3,1.4-4.1,3.9-5.2,7.5C1684.7,195.8,1684.2,200.8,1684.2,207.3z"/>
		</g>
	</g>
</g>
</svg>
